<?xml version="1.0" encoding="UTF-8"?>
<!DOCTYPE svg PUBLIC "-//W3C//DTD SVG 1.1//EN" "http://www.w3.org/Graphics/SVG/1.1/DTD/svg11.dtd">
<svg xmlns="http://www.w3.org/2000/svg" version="1.1" width="225px" height="225px" style="shape-rendering:geometricPrecision; text-rendering:geometricPrecision; image-rendering:optimizeQuality; fill-rule:evenodd; clip-rule:evenodd" xmlns:xlink="http://www.w3.org/1999/xlink">
<g><path style="opacity:1" fill="#fefefe" d="M -0.5,-0.5 C 74.5,-0.5 149.5,-0.5 224.5,-0.5C 224.5,74.5 224.5,149.5 224.5,224.5C 149.5,224.5 74.5,224.5 -0.5,224.5C -0.5,149.5 -0.5,74.5 -0.5,-0.5 Z"/></g>
<g><path style="opacity:1" fill="#020202" d="M 191.5,20.5 C 198.088,20.6566 200.588,23.99 199,30.5C 176.888,85.8823 154.388,141.049 131.5,196C 128.833,196.667 126.167,196.667 123.5,196C 112.286,174.359 101.453,152.526 91,130.5C 69.3985,119.283 47.5651,108.449 25.5,98C 22.0839,92.4122 23.4172,88.4122 29.5,86C 83.702,64.3898 137.702,42.5565 191.5,20.5 Z"/></g>
<g><path style="opacity:1" fill="#fafafa" d="M 163.5,45.5 C 164.239,45.369 164.906,45.5357 165.5,46C 142.167,69.3333 118.833,92.6667 95.5,116C 94.1667,116.667 92.8333,116.667 91.5,116C 76.4689,108.484 61.4689,100.984 46.5,93.5C 85.5904,77.4765 124.59,61.4765 163.5,45.5 Z"/></g>
<g><path style="opacity:1" fill="#fafafa" d="M 173.5,55.5 C 174.573,56.2506 174.74,57.2506 174,58.5C 158.333,97.1667 142.667,135.833 127,174.5C 119.263,158.457 111.43,142.457 103.5,126.5C 126.854,102.812 150.188,79.1458 173.5,55.5 Z"/></g>
</svg>
